<svg xmlns="http://www.w3.org/2000/svg" xmlns:xlink="http://www.w3.org/1999/xlink" contentStyleType="text/css" data-diagram-type="CLASS" height="430px" preserveAspectRatio="none" style="width:413px;height:430px;background:#FFFFFF;" version="1.1" viewBox="0 0 413 430" width="413px" zoomAndPan="magnify"><defs/><g><!--class Server--><g class="entity" data-entity="Server" data-source-line="2" data-uid="ent0002" id="entity_Server"><rect fill="#F1F1F1" height="96.8906" rx="2.5" ry="2.5" style="stroke:#181818;stroke-width:0.5;" width="112.1396" x="151.9" y="7"/><ellipse cx="182.3033" cy="23" fill="#B4A7E5" rx="11" ry="11" style="stroke:#181818;stroke-width:1;"/><path d="M178.2251,18.7656 L178.2251,16.6094 L185.6158,16.6094 L185.6158,18.7656 L183.147,18.7656 L183.147,26.8438 L185.6158,26.8438 L185.6158,29 L178.2251,29 L178.2251,26.8438 L180.6939,26.8438 L180.6939,18.7656 L178.2251,18.7656 Z " fill="#000000"/><text fill="#000000" font-family="sans-serif" font-size="14" font-style="italic" lengthAdjust="spacing" textLength="45.9102" x="199.7262" y="27.8467">Server</text><line style="stroke:#181818;stroke-width:0.5;" x1="152.9" x2="263.0396" y1="39" y2="39"/><ellipse cx="162.9" cy="52.6484" fill="none" rx="3" ry="3" style="stroke:#038048;stroke-width:1;"/><text fill="#000000" font-family="sans-serif" font-size="14" lengthAdjust="spacing" textLength="86.1396" x="171.9" y="55.9951">state : State</text><line style="stroke:#181818;stroke-width:0.5;" x1="152.9" x2="263.0396" y1="63.2969" y2="63.2969"/><ellipse cx="162.9" cy="76.9453" fill="#84BE84" rx="3" ry="3" style="stroke:#038048;stroke-width:1;"/><text fill="#000000" font-family="sans-serif" font-size="14" lengthAdjust="spacing" textLength="85.6475" x="171.9" y="80.292">start() : Unit</text><ellipse cx="162.9" cy="93.2422" fill="#84BE84" rx="3" ry="3" style="stroke:#038048;stroke-width:1;"/><text fill="#000000" font-family="sans-serif" font-size="14" lengthAdjust="spacing" textLength="83.2754" x="171.9" y="96.5889">stop() : Unit</text></g><!--class Server_State--><g class="entity" data-entity="Server_State" data-source-line="10" data-uid="ent0003" id="entity_Server_State"><rect fill="#F1F1F1" height="259.8594" rx="2.5" ry="2.5" style="stroke:#181818;stroke-width:0.5;" width="397.9297" x="9" y="163.89"/><ellipse cx="160.0059" cy="179.89" fill="#EB937F" rx="11" ry="11" style="stroke:#181818;stroke-width:1;"/><path d="M164.1152,185.89 L156.3965,185.89 L156.3965,173.4994 L164.1152,173.4994 L164.1152,175.6556 L158.8496,175.6556 L158.8496,178.3275 L163.6152,178.3275 L163.6152,180.4838 L158.8496,180.4838 L158.8496,183.7338 L164.1152,183.7338 L164.1152,185.89 Z " fill="#000000"/><text fill="#000000" font-family="sans-serif" font-size="14" lengthAdjust="spacing" textLength="87.418" x="180.5059" y="184.7367">Server.State</text><line style="stroke:#181818;stroke-width:0.5;" x1="10" x2="405.9297" y1="195.89" y2="195.89"/><text fill="#000000" font-family="sans-serif" font-size="14" lengthAdjust="spacing" textLength="64.9209" x="15" y="212.8851">STARTED</text><text fill="#000000" font-family="sans-serif" font-size="14" lengthAdjust="spacing" textLength="70.7451" x="15" y="229.182">STARTING</text><text fill="#000000" font-family="sans-serif" font-size="14" lengthAdjust="spacing" textLength="70.793" x="15" y="245.4789">STOPPING</text><text fill="#000000" font-family="sans-serif" font-size="14" lengthAdjust="spacing" textLength="64.9688" x="15" y="261.7757">STOPPED</text><line style="stroke:#181818;stroke-width:0.5;" x1="10" x2="405.9297" y1="269.0775" y2="269.0775"/><ellipse cx="20" cy="282.7259" fill="none" rx="3" ry="3" style="stroke:#038048;stroke-width:1;"/><text fill="#000000" font-family="sans-serif" font-size="14" lengthAdjust="spacing" textLength="95.1016" x="29" y="286.0726">name : String</text><ellipse cx="20" cy="299.0228" fill="none" rx="3" ry="3" style="stroke:#038048;stroke-width:1;"/><text fill="#000000" font-family="sans-serif" font-size="14" lengthAdjust="spacing" textLength="80.5479" x="29" y="302.3695">ordinal : Int</text><ellipse cx="20" cy="315.3197" fill="none" rx="3" ry="3" style="stroke:#038048;stroke-width:1;"/><text fill="#000000" font-family="sans-serif" font-size="14" lengthAdjust="spacing" text-decoration="underline" textLength="211.6543" x="29" y="318.6664">entries : EnumEntries&lt;State&gt;</text><polygon fill="#FFFF44" points="20,326.6166,24,330.6166,20,334.6166,16,330.6166" style="stroke:#B38D22;stroke-width:1;"/><text fill="#000000" font-family="sans-serif" font-size="14" lengthAdjust="spacing" textLength="88.915" x="29" y="334.9632">clone() : Any</text><ellipse cx="20" cy="347.9134" fill="#84BE84" rx="3" ry="3" style="stroke:#038048;stroke-width:1;"/><text fill="#000000" font-family="sans-serif" font-size="14" lengthAdjust="spacing" textLength="248.6777" x="29" y="351.2601">getDeclaringClass() : Class&lt;State&gt;</text><ellipse cx="20" cy="364.2103" fill="#84BE84" rx="3" ry="3" style="stroke:#038048;stroke-width:1;"/><text fill="#000000" font-family="sans-serif" font-size="14" lengthAdjust="spacing" textLength="371.9297" x="29" y="367.557">describeConstable() : Optional&lt;EnumDesc&lt;State&gt;&gt;</text><polygon fill="#FFFF44" points="20,375.5072,24,379.5072,20,383.5072,16,379.5072" style="stroke:#B38D22;stroke-width:1;"/><text fill="#000000" font-family="sans-serif" font-size="14" lengthAdjust="spacing" textLength="103.0518" x="29" y="383.8539">finalize() : Unit</text><ellipse cx="20" cy="396.8041" fill="#84BE84" rx="3" ry="3" style="stroke:#038048;stroke-width:1;"/><text fill="#000000" font-family="sans-serif" font-size="14" lengthAdjust="spacing" text-decoration="underline" textLength="168.5469" x="29" y="400.1507">values() : Array&lt;State&gt;</text><ellipse cx="20" cy="413.1009" fill="#84BE84" rx="3" ry="3" style="stroke:#038048;stroke-width:1;"/><text fill="#000000" font-family="sans-serif" font-size="14" lengthAdjust="spacing" text-decoration="underline" textLength="157.5684" x="29" y="416.4476">valueOf(String) : State</text></g><!--link Server to Server_State--><g class="link" data-entity-1="Server" data-entity-2="Server_State" data-source-line="28" data-uid="lnk4" id="link_Server_Server_State"><path codeLine="28" d="M207.96,104.28 C207.96,121.82 207.96,130.6 207.96,151.86" fill="none" id="Server-to-Server_State" style="stroke:#181818;stroke-width:1;"/><polygon fill="#181818" points="207.96,163.86,211.96,157.86,207.96,151.86,203.96,157.86,207.96,163.86" style="stroke:#181818;stroke-width:1;"/></g><!--SRC=[LL71Ri8m33tJhuZW00p11qneKaMhYGj5ApjN8RWeKaXH4f0Ouj_ds0NQNE8y-_azn-D52UuABX5uj0tWQgb031aT2ka5X-9E9V7CX0yoWFWKPRoJmO0G5oPJn7wj3YtKdDz893wIXEunjrmmFI9WBwUdACCTwOg0Ze5ob_xiyWnLA5fllYaijjjEIFcg8YjMdjYkq_P8IECEsag3uDgotNiSIgi7Ui4oy9ZAqLNEhoLv-CBAaL2ciK2JfVP6t2E439IHiVtAIEyfIz6RE1C7yChfFQmQYs9xmqsASz0DUbb6kGnBMWgBrT6c_eF-txxCNgMv0CkbpibRLwvVLDGJdd_wMjnp9-s6v_EFte__0m00]--></g></svg>