<svg xmlns="http://www.w3.org/2000/svg" xmlns:xlink="http://www.w3.org/1999/xlink" contentStyleType="text/css" data-diagram-type="CLASS" height="267px" preserveAspectRatio="none" style="width:198px;height:267px;background:#FFFFFF;" version="1.1" viewBox="0 0 198 267" width="198px" zoomAndPan="magnify"><defs/><g><!--class Server--><g class="entity" data-entity="Server" data-source-line="2" data-uid="ent0002" id="entity_Server"><rect fill="#F1F1F1" height="80.5938" rx="2.5" ry="2.5" style="stroke:#181818;stroke-width:0.5;" width="111.6475" x="43.3" y="7"/><ellipse cx="73.4818" cy="23" fill="#B4A7E5" rx="11" ry="11" style="stroke:#181818;stroke-width:1;"/><path d="M69.4037,18.7656 L69.4037,16.6094 L76.7943,16.6094 L76.7943,18.7656 L74.3255,18.7656 L74.3255,26.8438 L76.7943,26.8438 L76.7943,29 L69.4037,29 L69.4037,26.8438 L71.8724,26.8438 L71.8724,18.7656 L69.4037,18.7656 Z " fill="#000000"/><text fill="#000000" font-family="sans-serif" font-size="14" font-style="italic" lengthAdjust="spacing" textLength="45.9102" x="90.8555" y="27.8467">Server</text><line style="stroke:#181818;stroke-width:0.5;" x1="44.3" x2="153.9475" y1="39" y2="39"/><line style="stroke:#181818;stroke-width:0.5;" x1="44.3" x2="153.9475" y1="47" y2="47"/><ellipse cx="54.3" cy="60.6484" fill="#84BE84" rx="3" ry="3" style="stroke:#038048;stroke-width:1;"/><text fill="#000000" font-family="sans-serif" font-size="14" lengthAdjust="spacing" textLength="85.6475" x="63.3" y="63.9951">start() : Unit</text><ellipse cx="54.3" cy="76.9453" fill="#84BE84" rx="3" ry="3" style="stroke:#038048;stroke-width:1;"/><text fill="#000000" font-family="sans-serif" font-size="14" lengthAdjust="spacing" textLength="83.2754" x="63.3" y="80.292">stop() : Unit</text></g><!--class ServerImpl--><g class="entity" data-entity="ServerImpl" data-source-line="9" data-uid="ent0003" id="entity_ServerImpl"><rect fill="#F1F1F1" height="113.1875" rx="2.5" ry="2.5" style="stroke:#181818;stroke-width:0.5;" width="184.252" x="7" y="147.59"/><ellipse cx="56.6494" cy="163.59" fill="#ADD1B2" rx="11" ry="11" style="stroke:#181818;stroke-width:1;"/><path d="M59.6182,169.2306 Q59.04,169.5275 58.3994,169.6681 Q57.7588,169.8244 57.0557,169.8244 Q54.5557,169.8244 53.2275,168.1838 Q51.915,166.5275 51.915,163.4025 Q51.915,160.2775 53.2275,158.6213 Q54.5557,156.965 57.0557,156.965 Q57.7588,156.965 58.3994,157.1213 Q59.0557,157.2775 59.6182,157.5744 L59.6182,160.2931 Q58.9932,159.715 58.3994,159.4494 Q57.8057,159.1681 57.1807,159.1681 Q55.8369,159.1681 55.1494,160.2463 Q54.4619,161.3088 54.4619,163.4025 Q54.4619,165.4963 55.1494,166.5744 Q55.8369,167.6369 57.1807,167.6369 Q57.8057,167.6369 58.3994,167.3713 Q58.9932,167.09 59.6182,166.5119 L59.6182,169.2306 Z " fill="#000000"/><text fill="#000000" font-family="sans-serif" font-size="14" lengthAdjust="spacing" textLength="76.4531" x="77.1494" y="168.4367">ServerImpl</text><line style="stroke:#181818;stroke-width:0.5;" x1="8" x2="190.252" y1="179.59" y2="179.59"/><line style="stroke:#181818;stroke-width:0.5;" x1="8" x2="190.252" y1="187.59" y2="187.59"/><ellipse cx="18" cy="201.2384" fill="#84BE84" rx="3" ry="3" style="stroke:#038048;stroke-width:1;"/><text fill="#000000" font-family="sans-serif" font-size="14" lengthAdjust="spacing" textLength="85.6475" x="27" y="204.5851">start() : Unit</text><ellipse cx="18" cy="217.5353" fill="#84BE84" rx="3" ry="3" style="stroke:#038048;stroke-width:1;"/><text fill="#000000" font-family="sans-serif" font-size="14" lengthAdjust="spacing" textLength="83.2754" x="27" y="220.882">stop() : Unit</text><ellipse cx="18" cy="233.8322" fill="#84BE84" rx="3" ry="3" style="stroke:#038048;stroke-width:1;"/><text fill="#000000" font-family="sans-serif" font-size="14" lengthAdjust="spacing" textLength="158.252" x="27" y="237.1789">handleRequest() : Unit</text><ellipse cx="18" cy="250.1291" fill="#84BE84" rx="3" ry="3" style="stroke:#038048;stroke-width:1;"/><text fill="#000000" font-family="sans-serif" font-size="14" lengthAdjust="spacing" textLength="154.5742" x="27" y="253.4757">sendResponse() : Unit</text></g><!--reverse link Server to ServerImpl--><g class="link" data-entity-1="Server" data-entity-2="ServerImpl" data-source-line="17" data-uid="lnk4" id="link_Server_ServerImpl"><path codeLine="17" d="M99.13,105.78 C99.13,123.8 99.13,127.45 99.13,147.12" fill="none" id="Server-backto-ServerImpl" style="stroke:#181818;stroke-width:1;"/><polygon fill="none" points="99.13,87.78,93.13,105.78,105.13,105.78,99.13,87.78" style="stroke:#181818;stroke-width:1;"/></g><!--SRC=[KzSBJYqgIotYKW22pBoIrAAqnEHK1IM8g992Oh42XAbG3LO20jeAnIM9HIKQcWfM2g5vcILSd9mWeVm2X0X8MIqN5vXMXrhXcLkG0nP8paaiBePP0H95iWR49TqgYDACnBoKdDIWrCBIr69qBQbvAK6fnGNvUSMfcAw4-j2cHbSNoHa0]--></g></svg>