<svg xmlns="http://www.w3.org/2000/svg" xmlns:xlink="http://www.w3.org/1999/xlink" contentStyleType="text/css" data-diagram-type="CLASS" height="110px" preserveAspectRatio="none" style="width:311px;height:110px;background:#FFFFFF;" version="1.1" viewBox="0 0 311 110" width="311px" zoomAndPan="magnify"><defs/><g><!--class Server--><g class="entity" data-entity="Server" data-source-line="2" data-uid="ent0002" id="entity_Server"><rect fill="#F1F1F1" height="80.5938" rx="2.5" ry="2.5" style="stroke:#181818;stroke-width:0.5;" width="111.6475" x="7" y="15.15"/><ellipse cx="37.1818" cy="31.15" fill="#B4A7E5" rx="11" ry="11" style="stroke:#181818;stroke-width:1;"/><path d="M33.1037,26.9156 L33.1037,24.7594 L40.4943,24.7594 L40.4943,26.9156 L38.0255,26.9156 L38.0255,34.9938 L40.4943,34.9938 L40.4943,37.15 L33.1037,37.15 L33.1037,34.9938 L35.5724,34.9938 L35.5724,26.9156 L33.1037,26.9156 Z " fill="#000000"/><text fill="#000000" font-family="sans-serif" font-size="14" font-style="italic" lengthAdjust="spacing" textLength="45.9102" x="54.5555" y="35.9967">Server</text><line style="stroke:#181818;stroke-width:0.5;" x1="8" x2="117.6475" y1="47.15" y2="47.15"/><line style="stroke:#181818;stroke-width:0.5;" x1="8" x2="117.6475" y1="55.15" y2="55.15"/><ellipse cx="18" cy="68.7984" fill="#84BE84" rx="3" ry="3" style="stroke:#038048;stroke-width:1;"/><text fill="#000000" font-family="sans-serif" font-size="14" lengthAdjust="spacing" textLength="85.6475" x="27" y="72.1451">start() : Unit</text><ellipse cx="18" cy="85.0953" fill="#84BE84" rx="3" ry="3" style="stroke:#038048;stroke-width:1;"/><text fill="#000000" font-family="sans-serif" font-size="14" lengthAdjust="spacing" textLength="83.2754" x="27" y="88.442">stop() : Unit</text></g><!--class Server_Config--><g class="entity" data-entity="Server_Config" data-source-line="9" data-uid="ent0003" id="entity_Server_Config"><rect fill="#F1F1F1" height="96.8906" rx="2.5" ry="2.5" style="stroke:#181818;stroke-width:0.5;" width="150.4824" x="153.58" y="7"/><ellipse cx="179.0214" cy="23" fill="#B4A7E5" rx="11" ry="11" style="stroke:#181818;stroke-width:1;"/><path d="M174.9433,18.7656 L174.9433,16.6094 L182.3339,16.6094 L182.3339,18.7656 L179.8652,18.7656 L179.8652,26.8438 L182.3339,26.8438 L182.3339,29 L174.9433,29 L174.9433,26.8438 L177.412,26.8438 L177.412,18.7656 L174.9433,18.7656 Z " fill="#000000"/><text fill="#000000" font-family="sans-serif" font-size="14" font-style="italic" lengthAdjust="spacing" textLength="95.2793" x="195.3417" y="27.8467">Server.Config</text><line style="stroke:#181818;stroke-width:0.5;" x1="154.58" x2="303.0624" y1="39" y2="39"/><ellipse cx="164.58" cy="52.6484" fill="none" rx="3" ry="3" style="stroke:#038048;stroke-width:1;"/><text fill="#000000" font-family="sans-serif" font-size="14" lengthAdjust="spacing" text-decoration="underline" textLength="109.6895" x="173.58" y="55.9951">Default : Config</text><ellipse cx="164.58" cy="68.9453" fill="none" rx="3" ry="3" style="stroke:#038048;stroke-width:1;"/><text fill="#000000" font-family="sans-serif" font-size="14" lengthAdjust="spacing" textLength="124.4824" x="173.58" y="72.292">ipAddress : String</text><ellipse cx="164.58" cy="85.2422" fill="none" rx="3" ry="3" style="stroke:#038048;stroke-width:1;"/><text fill="#000000" font-family="sans-serif" font-size="14" lengthAdjust="spacing" textLength="60.8057" x="173.58" y="88.5889">port : Int</text><line style="stroke:#181818;stroke-width:0.5;" x1="154.58" x2="303.0624" y1="95.8906" y2="95.8906"/></g><!--SRC=[ROx12i8m38RFwrE4NQO8Um1leXVFmxEKBPM0j2NDl8ozkyrQKC5S4hxyv4lN3yWlP0Evo0koioD2MsWBDa4POTaYMWT8ObbsUpZ2pPEOfb4KueTeR3Lcwrqvq9-3T_JuBwhBBz-za1_jahr2umeNT7P-IhRLe_e1nTCqCQQKyI1Clk0OM8DNNxzw0m00]--></g></svg>