<svg xmlns="http://www.w3.org/2000/svg" xmlns:xlink="http://www.w3.org/1999/xlink" contentStyleType="text/css" data-diagram-type="CLASS" height="94px" preserveAspectRatio="none" style="width:274px;height:94px;background:#FFFFFF;" version="1.1" viewBox="0 0 274 94" width="274px" zoomAndPan="magnify"><defs/><g><!--class Server--><g class="entity" data-entity="Server" data-source-line="1" data-uid="ent0002" id="entity_Server"><rect fill="#F1F1F1" height="80.5938" rx="2.5" ry="2.5" style="stroke:#181818;stroke-width:0.5;" width="93.1973" x="7" y="7"/><ellipse cx="28.8792" cy="23" fill="#B4A7E5" rx="11" ry="11" style="stroke:#181818;stroke-width:1;"/><path d="M24.8011,18.7656 L24.8011,16.6094 L32.1917,16.6094 L32.1917,18.7656 L29.7229,18.7656 L29.7229,26.8438 L32.1917,26.8438 L32.1917,29 L24.8011,29 L24.8011,26.8438 L27.2698,26.8438 L27.2698,18.7656 L24.8011,18.7656 Z " fill="#000000"/><text fill="#000000" font-family="sans-serif" font-size="14" font-style="italic" lengthAdjust="spacing" textLength="45.9102" x="44.4079" y="27.8467">Server</text><line style="stroke:#181818;stroke-width:0.5;" x1="8" x2="99.1973" y1="39" y2="39"/><line style="stroke:#181818;stroke-width:0.5;" x1="8" x2="99.1973" y1="47" y2="47"/><text fill="#000000" font-family="sans-serif" font-size="14" lengthAdjust="spacing" textLength="81.1973" x="13" y="63.9951">start(): Unit</text><text fill="#000000" font-family="sans-serif" font-size="14" lengthAdjust="spacing" textLength="78.8252" x="13" y="80.292">stop(): Unit</text></g><!--class sv_cg--><g class="entity" data-entity="sv_cg" data-source-line="6" data-uid="ent0003" id="entity_sv_cg"><rect fill="#F1F1F1" height="80.5938" rx="2.5" ry="2.5" style="stroke:#181818;stroke-width:0.5;" width="132.0322" x="135.58" y="7"/><ellipse cx="152.7188" cy="23" fill="#B4A7E5" rx="11" ry="11" style="stroke:#181818;stroke-width:1;"/><path d="M148.6407,18.7656 L148.6407,16.6094 L156.0313,16.6094 L156.0313,18.7656 L153.5626,18.7656 L153.5626,26.8438 L156.0313,26.8438 L156.0313,29 L148.6407,29 L148.6407,26.8438 L151.1094,26.8438 L151.1094,18.7656 L148.6407,18.7656 Z " fill="#000000"/><text fill="#000000" font-family="sans-serif" font-size="14" font-style="italic" lengthAdjust="spacing" textLength="95.2793" x="167.1941" y="27.8467">Server.Config</text><line style="stroke:#181818;stroke-width:0.5;" x1="136.58" x2="266.6122" y1="39" y2="39"/><text fill="#000000" font-family="sans-serif" font-size="14" lengthAdjust="spacing" textLength="120.0322" x="141.58" y="55.9951">ipAddress: String</text><text fill="#000000" font-family="sans-serif" font-size="14" lengthAdjust="spacing" textLength="56.3555" x="141.58" y="72.292">port: Int</text><line style="stroke:#181818;stroke-width:0.5;" x1="136.58" x2="266.6122" y1="79.5938" y2="79.5938"/></g><!--SRC=[FOox2e0m303tVaLmqiKFw2PEpiLPYiQI9Ir9w2B-kozml8CxOaFPuueGK2hAuG3KebZRUPYPxELSVZoTexzflgWVC- -K6eWAMfSrFHSgmxO9gde89iJfTYMBUPZutbm0]--></g></svg>