<svg xmlns="http://www.w3.org/2000/svg" xmlns:xlink="http://www.w3.org/1999/xlink" contentStyleType="text/css" data-diagram-type="CLASS" height="343px" preserveAspectRatio="none" style="width:198px;height:343px;background:#FFFFFF;" version="1.1" viewBox="0 0 198 343" width="198px" zoomAndPan="magnify"><defs/><g><!--class Server--><g class="entity" data-entity="Server" data-source-line="2" data-uid="ent0002" id="entity_Server"><rect fill="#F1F1F1" height="80.5938" rx="2.5" ry="2.5" style="stroke:#181818;stroke-width:0.5;" width="111.6475" x="43.3" y="7"/><ellipse cx="73.4818" cy="23" fill="#B4A7E5" rx="11" ry="11" style="stroke:#181818;stroke-width:1;"/><path d="M69.4037,18.7656 L69.4037,16.6094 L76.7943,16.6094 L76.7943,18.7656 L74.3255,18.7656 L74.3255,26.8438 L76.7943,26.8438 L76.7943,29 L69.4037,29 L69.4037,26.8438 L71.8724,26.8438 L71.8724,18.7656 L69.4037,18.7656 Z " fill="#000000"/><text fill="#000000" font-family="sans-serif" font-size="14" font-style="italic" lengthAdjust="spacing" textLength="45.9102" x="90.8555" y="27.8467">Server</text><line style="stroke:#181818;stroke-width:0.5;" x1="44.3" x2="153.9475" y1="39" y2="39"/><line style="stroke:#181818;stroke-width:0.5;" x1="44.3" x2="153.9475" y1="47" y2="47"/><ellipse cx="54.3" cy="60.6484" fill="#84BE84" rx="3" ry="3" style="stroke:#038048;stroke-width:1;"/><text fill="#000000" font-family="sans-serif" font-size="14" lengthAdjust="spacing" textLength="85.6475" x="63.3" y="63.9951">start() : Unit</text><ellipse cx="54.3" cy="76.9453" fill="#84BE84" rx="3" ry="3" style="stroke:#038048;stroke-width:1;"/><text fill="#000000" font-family="sans-serif" font-size="14" lengthAdjust="spacing" textLength="83.2754" x="63.3" y="80.292">stop() : Unit</text></g><!--class AbstractServer--><g class="entity" data-entity="AbstractServer" data-source-line="9" data-uid="ent0003" id="entity_AbstractServer"><rect fill="#F1F1F1" height="80.5938" rx="2.5" ry="2.5" style="stroke:#181818;stroke-width:0.5;" width="184.252" x="7" y="147.6"/><ellipse cx="43.408" cy="163.6" fill="#ADD1B2" rx="11" ry="11" style="stroke:#181818;stroke-width:1;"/><path d="M46.3767,169.2406 Q45.7986,169.5375 45.158,169.6781 Q44.5173,169.8344 43.8142,169.8344 Q41.3142,169.8344 39.9861,168.1938 Q38.6736,166.5375 38.6736,163.4125 Q38.6736,160.2875 39.9861,158.6313 Q41.3142,156.975 43.8142,156.975 Q44.5173,156.975 45.158,157.1313 Q45.8142,157.2875 46.3767,157.5844 L46.3767,160.3031 Q45.7517,159.725 45.158,159.4594 Q44.5642,159.1781 43.9392,159.1781 Q42.5955,159.1781 41.908,160.2563 Q41.2205,161.3188 41.2205,163.4125 Q41.2205,165.5063 41.908,166.5844 Q42.5955,167.6469 43.9392,167.6469 Q44.5642,167.6469 45.158,167.3813 Q45.7517,167.1 46.3767,166.5219 L46.3767,169.2406 Z " fill="#000000"/><text fill="#000000" font-family="sans-serif" font-size="14" lengthAdjust="spacing" textLength="104.6787" x="62.1653" y="168.4467">AbstractServer</text><line style="stroke:#181818;stroke-width:0.5;" x1="8" x2="190.252" y1="179.6" y2="179.6"/><line style="stroke:#181818;stroke-width:0.5;" x1="8" x2="190.252" y1="187.6" y2="187.6"/><ellipse cx="18" cy="201.2484" fill="#84BE84" rx="3" ry="3" style="stroke:#038048;stroke-width:1;"/><text fill="#000000" font-family="sans-serif" font-size="14" lengthAdjust="spacing" textLength="158.252" x="27" y="204.5951">handleRequest() : Unit</text><ellipse cx="18" cy="217.5453" fill="#84BE84" rx="3" ry="3" style="stroke:#038048;stroke-width:1;"/><text fill="#000000" font-family="sans-serif" font-size="14" lengthAdjust="spacing" textLength="154.5742" x="27" y="220.892">sendResponse() : Unit</text></g><!--class ServerImpl--><g class="entity" data-entity="ServerImpl" data-source-line="16" data-uid="ent0004" id="entity_ServerImpl"><rect fill="#F1F1F1" height="48" rx="2.5" ry="2.5" style="stroke:#181818;stroke-width:0.5;" width="108.4531" x="44.9" y="288.19"/><ellipse cx="59.9" cy="304.19" fill="#ADD1B2" rx="11" ry="11" style="stroke:#181818;stroke-width:1;"/><path d="M62.8688,309.8306 Q62.2906,310.1275 61.65,310.2681 Q61.0094,310.4244 60.3063,310.4244 Q57.8063,310.4244 56.4781,308.7838 Q55.1656,307.1275 55.1656,304.0025 Q55.1656,300.8775 56.4781,299.2213 Q57.8063,297.565 60.3063,297.565 Q61.0094,297.565 61.65,297.7213 Q62.3063,297.8775 62.8688,298.1744 L62.8688,300.8931 Q62.2438,300.315 61.65,300.0494 Q61.0563,299.7681 60.4313,299.7681 Q59.0875,299.7681 58.4,300.8463 Q57.7125,301.9088 57.7125,304.0025 Q57.7125,306.0963 58.4,307.1744 Q59.0875,308.2369 60.4313,308.2369 Q61.0563,308.2369 61.65,307.9713 Q62.2438,307.69 62.8688,307.1119 L62.8688,309.8306 Z " fill="#000000"/><text fill="#000000" font-family="sans-serif" font-size="14" lengthAdjust="spacing" textLength="76.4531" x="73.9" y="309.0367">ServerImpl</text><line style="stroke:#181818;stroke-width:0.5;" x1="45.9" x2="152.3531" y1="320.19" y2="320.19"/><line style="stroke:#181818;stroke-width:0.5;" x1="45.9" x2="152.3531" y1="328.19" y2="328.19"/></g><!--reverse link Server to AbstractServer--><g class="link" data-entity-1="Server" data-entity-2="AbstractServer" data-source-line="21" data-uid="lnk5" id="link_Server_AbstractServer"><path codeLine="21" d="M99.13,106.01 C99.13,124.57 99.13,128.61 99.13,147.17" fill="none" id="Server-backto-AbstractServer" style="stroke:#181818;stroke-width:1;"/><polygon fill="none" points="99.13,88.01,93.13,106.01,105.13,106.01,99.13,88.01" style="stroke:#181818;stroke-width:1;"/></g><!--reverse link AbstractServer to ServerImpl--><g class="link" data-entity-1="AbstractServer" data-entity-2="ServerImpl" data-source-line="22" data-uid="lnk6" id="link_AbstractServer_ServerImpl"><path codeLine="22" d="M99.13,246.6 C99.13,266.13 99.13,271 99.13,287.71" fill="none" id="AbstractServer-backto-ServerImpl" style="stroke:#181818;stroke-width:1;"/><polygon fill="none" points="99.13,228.6,93.13,246.6,105.13,246.6,99.13,228.6" style="stroke:#181818;stroke-width:1;"/></g><!--SRC=[TOzD3i8W48NNvHGJDjMOzW36ZKktDHu0wHYR84K6tQXtLy38J-9iO1ulxtsq_Hxj7Is3pqpQeJq9YS2Zoa4Gn2iyWiNF2iW9wnPBMCD1JuurZPTcanHlUp4MphRV7ibP8LrM9PKW0bw-XBfIAchFGeyA1xpUaEfwrEE0P6PD-0yZ9kukHkK8ISr-wzUi-XVqXTeykwu2PHLtiAImDm00]--></g></svg>