<svg xmlns="http://www.w3.org/2000/svg" xmlns:xlink="http://www.w3.org/1999/xlink" contentStyleType="text/css" data-diagram-type="CLASS" height="359px" preserveAspectRatio="none" style="width:198px;height:359px;background:#FFFFFF;" version="1.1" viewBox="0 0 198 359" width="198px" zoomAndPan="magnify"><defs/><g><!--class Server--><g class="entity" data-entity="Server" data-source-line="2" data-uid="ent0002" id="entity_Server"><rect fill="#F1F1F1" height="80.5938" rx="2.5" ry="2.5" style="stroke:#181818;stroke-width:0.5;" width="111.6475" x="43.3" y="7"/><ellipse cx="73.4818" cy="23" fill="#B4A7E5" rx="11" ry="11" style="stroke:#181818;stroke-width:1;"/><path d="M69.4037,18.7656 L69.4037,16.6094 L76.7943,16.6094 L76.7943,18.7656 L74.3255,18.7656 L74.3255,26.8438 L76.7943,26.8438 L76.7943,29 L69.4037,29 L69.4037,26.8438 L71.8724,26.8438 L71.8724,18.7656 L69.4037,18.7656 Z " fill="#000000"/><text fill="#000000" font-family="sans-serif" font-size="14" font-style="italic" lengthAdjust="spacing" textLength="45.9102" x="90.8555" y="27.8467">Server</text><line style="stroke:#181818;stroke-width:0.5;" x1="44.3" x2="153.9475" y1="39" y2="39"/><line style="stroke:#181818;stroke-width:0.5;" x1="44.3" x2="153.9475" y1="47" y2="47"/><ellipse cx="54.3" cy="60.6484" fill="#84BE84" rx="3" ry="3" style="stroke:#038048;stroke-width:1;"/><text fill="#000000" font-family="sans-serif" font-size="14" lengthAdjust="spacing" textLength="85.6475" x="63.3" y="63.9951">start() : Unit</text><ellipse cx="54.3" cy="76.9453" fill="#84BE84" rx="3" ry="3" style="stroke:#038048;stroke-width:1;"/><text fill="#000000" font-family="sans-serif" font-size="14" lengthAdjust="spacing" textLength="83.2754" x="63.3" y="80.292">stop() : Unit</text></g><!--class AbstractServer--><g class="entity" data-entity="AbstractServer" data-source-line="9" data-uid="ent0003" id="entity_AbstractServer"><rect fill="#F1F1F1" height="80.5938" rx="2.5" ry="2.5" style="stroke:#181818;stroke-width:0.5;" width="184.252" x="7" y="147.59"/><ellipse cx="43.408" cy="163.59" fill="#ADD1B2" rx="11" ry="11" style="stroke:#181818;stroke-width:1;"/><path d="M46.3767,169.2306 Q45.7986,169.5275 45.158,169.6681 Q44.5173,169.8244 43.8142,169.8244 Q41.3142,169.8244 39.9861,168.1838 Q38.6736,166.5275 38.6736,163.4025 Q38.6736,160.2775 39.9861,158.6213 Q41.3142,156.965 43.8142,156.965 Q44.5173,156.965 45.158,157.1213 Q45.8142,157.2775 46.3767,157.5744 L46.3767,160.2931 Q45.7517,159.715 45.158,159.4494 Q44.5642,159.1681 43.9392,159.1681 Q42.5955,159.1681 41.908,160.2463 Q41.2205,161.3088 41.2205,163.4025 Q41.2205,165.4963 41.908,166.5744 Q42.5955,167.6369 43.9392,167.6369 Q44.5642,167.6369 45.158,167.3713 Q45.7517,167.09 46.3767,166.5119 L46.3767,169.2306 Z " fill="#000000"/><text fill="#000000" font-family="sans-serif" font-size="14" lengthAdjust="spacing" textLength="104.6787" x="62.1653" y="168.4367">AbstractServer</text><line style="stroke:#181818;stroke-width:0.5;" x1="8" x2="190.252" y1="179.59" y2="179.59"/><line style="stroke:#181818;stroke-width:0.5;" x1="8" x2="190.252" y1="187.59" y2="187.59"/><ellipse cx="18" cy="201.2384" fill="#84BE84" rx="3" ry="3" style="stroke:#038048;stroke-width:1;"/><text fill="#000000" font-family="sans-serif" font-size="14" lengthAdjust="spacing" textLength="158.252" x="27" y="204.5851">handleRequest() : Unit</text><ellipse cx="18" cy="217.5353" fill="#84BE84" rx="3" ry="3" style="stroke:#038048;stroke-width:1;"/><text fill="#000000" font-family="sans-serif" font-size="14" lengthAdjust="spacing" textLength="154.5742" x="27" y="220.882">sendResponse() : Unit</text></g><!--class ServerImpl--><g class="entity" data-entity="ServerImpl" data-source-line="16" data-uid="ent0004" id="entity_ServerImpl"><rect fill="#F1F1F1" height="64.2969" rx="2.5" ry="2.5" style="stroke:#181818;stroke-width:0.5;" width="184.252" x="7" y="288.18"/><ellipse cx="56.6494" cy="304.18" fill="#ADD1B2" rx="11" ry="11" style="stroke:#181818;stroke-width:1;"/><path d="M59.6182,309.8206 Q59.04,310.1175 58.3994,310.2581 Q57.7588,310.4144 57.0557,310.4144 Q54.5557,310.4144 53.2275,308.7738 Q51.915,307.1175 51.915,303.9925 Q51.915,300.8675 53.2275,299.2113 Q54.5557,297.555 57.0557,297.555 Q57.7588,297.555 58.3994,297.7113 Q59.0557,297.8675 59.6182,298.1644 L59.6182,300.8831 Q58.9932,300.305 58.3994,300.0394 Q57.8057,299.7581 57.1807,299.7581 Q55.8369,299.7581 55.1494,300.8363 Q54.4619,301.8988 54.4619,303.9925 Q54.4619,306.0863 55.1494,307.1644 Q55.8369,308.2269 57.1807,308.2269 Q57.8057,308.2269 58.3994,307.9613 Q58.9932,307.68 59.6182,307.1019 L59.6182,309.8206 Z " fill="#000000"/><text fill="#000000" font-family="sans-serif" font-size="14" lengthAdjust="spacing" textLength="76.4531" x="77.1494" y="309.0267">ServerImpl</text><line style="stroke:#181818;stroke-width:0.5;" x1="8" x2="190.252" y1="320.18" y2="320.18"/><line style="stroke:#181818;stroke-width:0.5;" x1="8" x2="190.252" y1="328.18" y2="328.18"/><ellipse cx="18" cy="341.8284" fill="#84BE84" rx="3" ry="3" style="stroke:#038048;stroke-width:1;"/><text fill="#000000" font-family="sans-serif" font-size="14" lengthAdjust="spacing" textLength="158.252" x="27" y="345.1751">handleRequest() : Unit</text></g><!--reverse link Server to AbstractServer--><g class="link" data-entity-1="Server" data-entity-2="AbstractServer" data-source-line="21" data-uid="lnk5" id="link_Server_AbstractServer"><path codeLine="21" d="M99.13,106.01 C99.13,124.57 99.13,128.61 99.13,147.17" fill="none" id="Server-backto-AbstractServer" style="stroke:#181818;stroke-width:1;"/><polygon fill="none" points="99.13,88.01,93.13,106.01,105.13,106.01,99.13,88.01" style="stroke:#181818;stroke-width:1;"/></g><!--reverse link AbstractServer to ServerImpl--><g class="link" data-entity-1="AbstractServer" data-entity-2="ServerImpl" data-source-line="22" data-uid="lnk6" id="link_AbstractServer_ServerImpl"><path codeLine="22" d="M99.13,246.38 C99.13,265.42 99.13,269.96 99.13,287.83" fill="none" id="AbstractServer-backto-ServerImpl" style="stroke:#181818;stroke-width:1;"/><polygon fill="none" points="99.13,228.38,93.13,246.38,105.13,246.38,99.13,228.38" style="stroke:#181818;stroke-width:1;"/></g><!--SRC=[ZOzD3i8W48NNvHGJDjMOzW36ZKktRJm0qZ4sgHGPTAFUNG4DFuc9im4UB_EzLxSzcXiQ1kyPbKLp51A11vM380XNk7kBcnMG5SOkbh26lHejgoedpJegplPap9zrkpsGDKBQ12KdGGGy__6uNCgm9w662JkyN95AFAgXGzAp8lmL8spSdVMKHeXgqjOz_q5_0P-mcqVJ50LOqSTR8kG5]--></g></svg>