<svg xmlns="http://www.w3.org/2000/svg" xmlns:xlink="http://www.w3.org/1999/xlink" contentStyleType="text/css" data-diagram-type="CLASS" height="475px" preserveAspectRatio="none" style="width:646px;height:475px;background:#FFFFFF;" version="1.1" viewBox="0 0 646 475" width="646px" zoomAndPan="magnify"><defs/><g><!--class Server--><g class="entity" data-entity="Server" data-source-line="2" data-uid="ent0002" id="entity_Server"><rect fill="#F1F1F1" height="96.8906" rx="2.5" ry="2.5" style="stroke:#181818;stroke-width:0.5;" width="112.1396" x="267.32" y="7"/><ellipse cx="297.7233" cy="23" fill="#B4A7E5" rx="11" ry="11" style="stroke:#181818;stroke-width:1;"/><path d="M293.6451,18.7656 L293.6451,16.6094 L301.0358,16.6094 L301.0358,18.7656 L298.567,18.7656 L298.567,26.8438 L301.0358,26.8438 L301.0358,29 L293.6451,29 L293.6451,26.8438 L296.1139,26.8438 L296.1139,18.7656 L293.6451,18.7656 Z " fill="#000000"/><text fill="#000000" font-family="sans-serif" font-size="14" font-style="italic" lengthAdjust="spacing" textLength="45.9102" x="315.1462" y="27.8467">Server</text><line style="stroke:#181818;stroke-width:0.5;" x1="268.32" x2="378.4596" y1="39" y2="39"/><ellipse cx="278.32" cy="52.6484" fill="none" rx="3" ry="3" style="stroke:#038048;stroke-width:1;"/><text fill="#000000" font-family="sans-serif" font-size="14" lengthAdjust="spacing" textLength="86.1396" x="287.32" y="55.9951">state : State</text><line style="stroke:#181818;stroke-width:0.5;" x1="268.32" x2="378.4596" y1="63.2969" y2="63.2969"/><ellipse cx="278.32" cy="76.9453" fill="#84BE84" rx="3" ry="3" style="stroke:#038048;stroke-width:1;"/><text fill="#000000" font-family="sans-serif" font-size="14" lengthAdjust="spacing" textLength="85.6475" x="287.32" y="80.292">start() : Unit</text><ellipse cx="278.32" cy="93.2422" fill="#84BE84" rx="3" ry="3" style="stroke:#038048;stroke-width:1;"/><text fill="#000000" font-family="sans-serif" font-size="14" lengthAdjust="spacing" textLength="83.2754" x="287.32" y="96.5889">stop() : Unit</text></g><!--class Server_State--><g class="entity" data-entity="Server_State" data-source-line="10" data-uid="ent0003" id="entity_Server_State"><rect fill="#F1F1F1" height="56.2656" rx="2.5" ry="2.5" style="stroke:#181818;stroke-width:0.5;" width="119.418" x="263.69" y="163.89"/><ellipse cx="278.69" cy="184.0228" fill="#ADD1B2" rx="11" ry="11" style="stroke:#181818;stroke-width:1;"/><path d="M281.6588,189.6634 Q281.0806,189.9603 280.44,190.1009 Q279.7994,190.2572 279.0963,190.2572 Q276.5963,190.2572 275.2681,188.6166 Q273.9556,186.9603 273.9556,183.8353 Q273.9556,180.7103 275.2681,179.0541 Q276.5963,177.3978 279.0963,177.3978 Q279.7994,177.3978 280.44,177.5541 Q281.0963,177.7103 281.6588,178.0072 L281.6588,180.7259 Q281.0338,180.1478 280.44,179.8822 Q279.8463,179.6009 279.2213,179.6009 Q277.8775,179.6009 277.19,180.6791 Q276.5025,181.7416 276.5025,183.8353 Q276.5025,185.9291 277.19,187.0072 Q277.8775,188.0697 279.2213,188.0697 Q279.8463,188.0697 280.44,187.8041 Q281.0338,187.5228 281.6588,186.9447 L281.6588,189.6634 Z " fill="#000000"/><text fill="#000000" font-family="sans-serif" font-size="12" font-style="italic" lengthAdjust="spacing" textLength="55.3711" x="308.7134" y="180.0287">&#171;Sealed&#187;</text><text fill="#000000" font-family="sans-serif" font-size="14" lengthAdjust="spacing" textLength="87.418" x="292.69" y="195.8539">Server.State</text><line style="stroke:#181818;stroke-width:0.5;" x1="264.69" x2="382.108" y1="204.1556" y2="204.1556"/><line style="stroke:#181818;stroke-width:0.5;" x1="264.69" x2="382.108" y1="212.1556" y2="212.1556"/></g><!--class Server_State_STARTED--><g class="entity" data-entity="Server_State_STARTED" data-source-line="16" data-uid="ent0004" id="entity_Server_State_STARTED"><rect fill="#F1F1F1" height="56.2656" rx="2.5" ry="2.5" style="stroke:#181818;stroke-width:0.5;" width="188.7891" x="7" y="284.17"/><ellipse cx="22" cy="304.3028" fill="#FF7700" rx="11" ry="11" style="stroke:#181818;stroke-width:1;"/><path d="M22.1094,299.8809 Q21.1719,299.8809 20.7344,300.8809 Q20.3125,301.8809 20.3125,304.1153 Q20.3125,306.3497 20.7344,307.3497 Q21.1719,308.3497 22.1094,308.3497 Q23.0625,308.3497 23.4844,307.3497 Q23.9219,306.3497 23.9219,304.1153 Q23.9219,301.8809 23.4844,300.8809 Q23.0625,299.8809 22.1094,299.8809 Z M17.7656,304.1153 Q17.7656,300.9434 18.8594,299.3184 Q19.9688,297.6778 22.1094,297.6778 Q24.2656,297.6778 25.3594,299.3184 Q26.4688,300.9434 26.4688,304.1153 Q26.4688,307.2872 25.3594,308.9122 Q24.2656,310.5372 22.1094,310.5372 Q19.9688,310.5372 18.8594,308.9122 Q17.7656,307.2872 17.7656,304.1153 Z " fill="#000000"/><text fill="#000000" font-family="sans-serif" font-size="12" font-style="italic" lengthAdjust="spacing" textLength="51.6621" x="88.5635" y="300.3087">&#171;object&#187;</text><text fill="#000000" font-family="sans-serif" font-size="14" lengthAdjust="spacing" textLength="156.7891" x="36" y="316.1339">Server.State.STARTED</text><line style="stroke:#181818;stroke-width:0.5;" x1="8" x2="194.7891" y1="324.4356" y2="324.4356"/><line style="stroke:#181818;stroke-width:0.5;" x1="8" x2="194.7891" y1="332.4356" y2="332.4356"/></g><!--class Server_State_STARTING--><g class="entity" data-entity="Server_State_STARTING" data-source-line="22" data-uid="ent0005" id="entity_Server_State_STARTING"><rect fill="#F1F1F1" height="56.2656" rx="2.5" ry="2.5" style="stroke:#181818;stroke-width:0.5;" width="194.6133" x="111.09" y="408.47"/><ellipse cx="126.09" cy="428.6028" fill="#FF7700" rx="11" ry="11" style="stroke:#181818;stroke-width:1;"/><path d="M126.1994,424.1809 Q125.2619,424.1809 124.8244,425.1809 Q124.4025,426.1809 124.4025,428.4153 Q124.4025,430.6497 124.8244,431.6497 Q125.2619,432.6497 126.1994,432.6497 Q127.1525,432.6497 127.5744,431.6497 Q128.0119,430.6497 128.0119,428.4153 Q128.0119,426.1809 127.5744,425.1809 Q127.1525,424.1809 126.1994,424.1809 Z M121.8556,428.4153 Q121.8556,425.2434 122.9494,423.6184 Q124.0588,421.9778 126.1994,421.9778 Q128.3556,421.9778 129.4494,423.6184 Q130.5588,425.2434 130.5588,428.4153 Q130.5588,431.5872 129.4494,433.2122 Q128.3556,434.8372 126.1994,434.8372 Q124.0588,434.8372 122.9494,433.2122 Q121.8556,431.5872 121.8556,428.4153 Z " fill="#000000"/><text fill="#000000" font-family="sans-serif" font-size="12" font-style="italic" lengthAdjust="spacing" textLength="51.6621" x="195.5656" y="424.6087">&#171;object&#187;</text><text fill="#000000" font-family="sans-serif" font-size="14" lengthAdjust="spacing" textLength="162.6133" x="140.09" y="440.4339">Server.State.STARTING</text><line style="stroke:#181818;stroke-width:0.5;" x1="112.09" x2="304.7033" y1="448.7356" y2="448.7356"/><line style="stroke:#181818;stroke-width:0.5;" x1="112.09" x2="304.7033" y1="456.7356" y2="456.7356"/></g><!--class Server_State_STOPPING--><g class="entity" data-entity="Server_State_STOPPING" data-source-line="28" data-uid="ent0006" id="entity_Server_State_STOPPING"><rect fill="#F1F1F1" height="64.2969" rx="2.5" ry="2.5" style="stroke:#181818;stroke-width:0.5;" width="194.6611" x="341.06" y="404.45"/><ellipse cx="356.06" cy="420.45" fill="#ADD1B2" rx="11" ry="11" style="stroke:#181818;stroke-width:1;"/><path d="M359.0288,426.0906 Q358.4506,426.3875 357.81,426.5281 Q357.1694,426.6844 356.4663,426.6844 Q353.9663,426.6844 352.6381,425.0438 Q351.3256,423.3875 351.3256,420.2625 Q351.3256,417.1375 352.6381,415.4813 Q353.9663,413.825 356.4663,413.825 Q357.1694,413.825 357.81,413.9813 Q358.4663,414.1375 359.0288,414.4344 L359.0288,417.1531 Q358.4038,416.575 357.81,416.3094 Q357.2163,416.0281 356.5913,416.0281 Q355.2475,416.0281 354.56,417.1063 Q353.8725,418.1688 353.8725,420.2625 Q353.8725,422.3563 354.56,423.4344 Q355.2475,424.4969 356.5913,424.4969 Q357.2163,424.4969 357.81,424.2313 Q358.4038,423.95 359.0288,423.3719 L359.0288,426.0906 Z " fill="#000000"/><text fill="#000000" font-family="sans-serif" font-size="14" lengthAdjust="spacing" textLength="162.6611" x="370.06" y="425.2967">Server.State.STOPPING</text><line style="stroke:#181818;stroke-width:0.5;" x1="342.06" x2="534.7211" y1="436.45" y2="436.45"/><ellipse cx="352.06" cy="450.0984" fill="none" rx="3" ry="3" style="stroke:#038048;stroke-width:1;"/><text fill="#000000" font-family="sans-serif" font-size="14" lengthAdjust="spacing" textLength="103.0791" x="361.06" y="453.4451">reason : String</text><line style="stroke:#181818;stroke-width:0.5;" x1="342.06" x2="534.7211" y1="460.7469" y2="460.7469"/></g><!--class Server_State_STOPPED--><g class="entity" data-entity="Server_State_STOPPED" data-source-line="34" data-uid="ent0007" id="entity_Server_State_STOPPED"><rect fill="#F1F1F1" height="64.2969" rx="2.5" ry="2.5" style="stroke:#181818;stroke-width:0.5;" width="188.8369" x="450.98" y="280.16"/><ellipse cx="465.98" cy="296.16" fill="#ADD1B2" rx="11" ry="11" style="stroke:#181818;stroke-width:1;"/><path d="M468.9488,301.8006 Q468.3706,302.0975 467.73,302.2381 Q467.0894,302.3944 466.3863,302.3944 Q463.8863,302.3944 462.5581,300.7537 Q461.2456,299.0975 461.2456,295.9725 Q461.2456,292.8475 462.5581,291.1912 Q463.8863,289.535 466.3863,289.535 Q467.0894,289.535 467.73,289.6912 Q468.3863,289.8475 468.9488,290.1444 L468.9488,292.8631 Q468.3238,292.285 467.73,292.0194 Q467.1363,291.7381 466.5113,291.7381 Q465.1675,291.7381 464.48,292.8162 Q463.7925,293.8787 463.7925,295.9725 Q463.7925,298.0662 464.48,299.1444 Q465.1675,300.2069 466.5113,300.2069 Q467.1363,300.2069 467.73,299.9412 Q468.3238,299.66 468.9488,299.0819 L468.9488,301.8006 Z " fill="#000000"/><text fill="#000000" font-family="sans-serif" font-size="14" lengthAdjust="spacing" textLength="156.8369" x="479.98" y="301.0067">Server.State.STOPPED</text><line style="stroke:#181818;stroke-width:0.5;" x1="451.98" x2="638.8169" y1="312.16" y2="312.16"/><ellipse cx="461.98" cy="325.8084" fill="none" rx="3" ry="3" style="stroke:#038048;stroke-width:1;"/><text fill="#000000" font-family="sans-serif" font-size="14" lengthAdjust="spacing" textLength="103.0791" x="470.98" y="329.1551">reason : String</text><line style="stroke:#181818;stroke-width:0.5;" x1="451.98" x2="638.8169" y1="336.4569" y2="336.4569"/></g><!--reverse link Server_State to Server_State_STOPPED--><g class="link" data-entity-1="Server_State" data-entity-2="Server_State_STOPPED" data-source-line="39" data-uid="lnk8" id="link_Server_State_Server_State_STOPPED"><path codeLine="39" d="M391.0466,229.0726 C424.2366,246.7526 451.52,261.29 486.08,279.7" fill="none" id="Server_State-backto-Server_State_STOPPED" style="stroke:#181818;stroke-width:1;"/><polygon fill="none" points="375.16,220.61,388.2257,234.3682,393.8675,223.7771,375.16,220.61" style="stroke:#181818;stroke-width:1;"/></g><!--reverse link Server_State to Server_State_STOPPING--><g class="link" data-entity-1="Server_State" data-entity-2="Server_State_STOPPING" data-source-line="40" data-uid="lnk9" id="link_Server_State_Server_State_STOPPING"><path codeLine="40" d="M344.0709,236.6447 C365.5709,281.9947 400.76,356.22 423.48,404.14" fill="none" id="Server_State-backto-Server_State_STOPPING" style="stroke:#181818;stroke-width:1;"/><polygon fill="none" points="336.36,220.38,338.6494,239.215,349.4925,234.0744,336.36,220.38" style="stroke:#181818;stroke-width:1;"/></g><!--reverse link Server_State to Server_State_STARTING--><g class="link" data-entity-1="Server_State" data-entity-2="Server_State_STARTING" data-source-line="41" data-uid="lnk10" id="link_Server_State_Server_State_STARTING"><path codeLine="41" d="M302.7184,236.6444 C280.6284,283.2344 243.67,361.2 221.49,407.97" fill="none" id="Server_State-backto-Server_State_STARTING" style="stroke:#181818;stroke-width:1;"/><polygon fill="none" points="310.43,220.38,297.297,234.0739,308.1399,239.215,310.43,220.38" style="stroke:#181818;stroke-width:1;"/></g><!--reverse link Server_State to Server_State_STARTED--><g class="link" data-entity-1="Server_State" data-entity-2="Server_State_STARTED" data-source-line="42" data-uid="lnk11" id="link_Server_State_Server_State_STARTED"><path codeLine="42" d="M255.7426,229.0711 C220.1226,248.0411 188.88,264.69 153.25,283.68" fill="none" id="Server_State-backto-Server_State_STARTED" style="stroke:#181818;stroke-width:1;"/><polygon fill="none" points="271.63,220.61,252.9222,223.7753,258.563,234.3669,271.63,220.61" style="stroke:#181818;stroke-width:1;"/></g><!--link Server to Server_State--><g class="link" data-entity-1="Server" data-entity-2="Server_State" data-source-line="43" data-uid="lnk12" id="link_Server_Server_State"><path codeLine="43" d="M323.39,104.27 C323.39,124.22 323.39,134.66 323.39,151.72" fill="none" id="Server-to-Server_State" style="stroke:#181818;stroke-width:1;"/><polygon fill="#181818" points="323.39,163.72,327.39,157.72,323.39,151.72,319.39,157.72,323.39,163.72" style="stroke:#181818;stroke-width:1;"/></g><!--SRC=[fPFF2u8m5CVF-LSyx62_9js2Y20eeqj9rbcMlS8GZMrqgVxtvcQKf6QqoyRt-_O-RtkRPNl8BiWCa2EC1R833H1ChPf0EUWbN5L8Ehh01HK8G_3IsMWqbC94gosrRHoAJ4hEBoNTU3SCDLiwfQstfqeGKSwVLAs_iNqbm6Za8OrmFnw_QYdFQtkRoNepcvRbV_eV73yp90zQgnuq7MSmwFVRaEnE68XVw8lbl1el0qhuqlctW9NhLXUW0ueAq4wkvmmfJsBLT1R6ns_aoejNVWbNNdmTRFvbt0WfJFKPHegFMYCmw-TNi7vrsQyXf9Fp7m00]--></g></svg>